<?xml version="1.0" encoding="UTF-8"?><svg id="Layer_1" xmlns="http://www.w3.org/2000/svg" viewBox="0 0 136.37 85.14"><defs><style>.cls-1{fill:none;stroke:#d9919d;}.cls-1,.cls-2{stroke-linecap:round;stroke-linejoin:round;stroke-width:4px;}.cls-3{fill:#fff;}.cls-2{fill:#231f20;stroke:#fff;}.cls-4{fill:#d9919d;}</style></defs><g><path class="cls-4" d="M136.37,68.18C136.37,30.53,105.84,0,68.18,0h0C30.53,0,0,30.53,0,68.18v16.96H20.6s0-.04,0-.05c0-9.83,3.31-18.93,8.93-26.34,.92-1.21,1.91-2.36,2.94-3.48l2.87-19.31c.5-3.37,4.55-4.83,7.09-2.55l10.05,9.05c4.92-1.63,10.2-2.54,15.7-2.54s10.79,.9,15.71,2.53l10.05-9.04c2.53-2.28,6.59-.82,7.09,2.55l2.87,19.3c7.38,7.96,11.87,18.4,11.87,29.83,0,.02,0,.04,0,.05h20.6v-16.96Z"/><path class="cls-3" d="M103.9,55.26l-2.87-19.3c-.5-3.37-4.55-4.83-7.09-2.55l-10.05,9.04c-4.92-1.63-10.2-2.53-15.71-2.53s-10.79,.91-15.7,2.54l-10.05-9.05c-2.53-2.28-6.59-.82-7.09,2.55l-2.87,19.31c-1.03,1.12-2.03,2.27-2.94,3.48-5.62,7.42-8.93,16.51-8.93,26.34,0,.02,0,.04,0,.05H115.77s0-.04,0-.05c0-11.44-4.49-21.87-11.87-29.83Z"/></g><line class="cls-2" x1="13.11" y1="62.14" x2="37.26" y2="68.18"/><line class="cls-2" x1="12.38" y1="77.36" x2="39.2" y2="76.39"/><line class="cls-2" x1="123.26" y1="62.14" x2="99.1" y2="68.18"/><line class="cls-2" x1="123.98" y1="77.36" x2="97.17" y2="76.39"/><path class="cls-4" d="M68.83,76.77c-.31,.45-.98,.45-1.3,0l-1.73-2.49-1.52-2.18c-.36-.52,.01-1.24,.65-1.24h6.49c.64,0,1.01,.72,.65,1.24l-1.52,2.18-1.73,2.49Z"/><path class="cls-1" d="M37.54,58.96s12.38-1.61,19.51,10.69"/><path class="cls-1" d="M98.83,58.96s-12.38-1.61-19.51,10.69"/></svg>